# xmcd CD database file
# Copyright (C) 1993-1998 Ti Kan
#
# Track frame offsets:
#	182
#	12522
#	27345
#	38877
#	50147
#	65060
#	78242
#	88185
#	103440
#	114187
#	123407
#	135922
#	145262
#	158422
#	173672
#	185285
#	197302
#	209707
#	225127
#	236617
#	248787
#	261935
#	273827
#	287935
#	299082
#
# Disc length: 4186 seconds
#
# Revision: 1
# Processed by: cddbd v1.4b41PL1 Copyright (c) Steve Scherf et al.
# Submitted via: CDValet v3.31 - Copyright (c) 1997 Greg Leichner
#
DISCID=6a105819
DTITLE=Various Artist - Shades Of Country - Volume 2
DYEAR=1900
DGENRE=
TTITLE0=Don't It Make My Brown Eyes Blue/Crystal Gayle
TTITLE1=Midnight Love/Billie Jo Spears
TTITLE2=Walking After Midnight/Patsy Cline
TTITLE3=Heaven's Just A Sin Away/The Kendalls
TTITLE4=Harper Valley PTA/Jeannie C Riley
TTITLE5=I Fall To Pieces/Wanda Jackson
TTITLE6=Break My Mind/Crystal Gayle
TTITLE7=Blanket On The Ground/Billie Jo Spears
TTITLE8=I Can See An Angel/Patsy Cline
TTITLE9=Blue Blue Day/The Kendalls
TTITLE10=Crazy/Wanda Jackson
TTITLE11=The Girl Most Likely To/Jeannie C Riley 
TTITLE12=D.I.V.O.R.C.E./Dottie West
TTITLE13=Ready For The Times To Get Better/Crystal Gayle
TTITLE14=In Care Of The Blues/Patsy Cline
TTITLE15=Misty Blue/Billie Jo Spears
TTITLE16=Pick Me Up On Your Way Down/The Kendalls
TTITLE17=Always On My Mind/Jo Anne Houston
TTITLE18=Letter To Heaven/Dolly Parton
TTITLE19=You Never Can Tell/Billie Jo Spears
TTITLE20=Talking In Your Sleep/Crystal Gayle
TTITLE21=The Last Thing On My Mind/Anne Murray
TTITLE22=Loving Him Was Easier/Jo Anne Houston
TTITLE23=My Last Date (With You)/Skeeter Davis
TTITLE24=Desperado/Lynn Anderson
EXTD=Input by Bill (whall@netcomuk.co.uk)
EXTT0=
EXTT1=
EXTT2=
EXTT3=
EXTT4=
EXTT5=
EXTT6=
EXTT7=
EXTT8=
EXTT9=
EXTT10=
EXTT11=
EXTT12=
EXTT13=
EXTT14=
EXTT15=
EXTT16=
EXTT17=
EXTT18=
EXTT19=
EXTT20=
EXTT21=
EXTT22=
EXTT23=
EXTT24=
PLAYORDER=
